<mxfile host="app.diagrams.net" agent="Mozilla/5.0 (Windows NT 10.0; Win64; x64) AppleWebKit/537.36 (KHTML, like Gecko) Chrome/137.0.0.0 Safari/537.36" version="27.0.8">
  <diagram name="Page-1" id="FEjrkqeZDdIg-vik-IkH">
    <mxGraphModel dx="1722" dy="954" grid="1" gridSize="10" guides="1" tooltips="1" connect="1" arrows="1" fold="1" page="1" pageScale="1" pageWidth="827" pageHeight="1169" math="0" shadow="0">
      <root>
        <mxCell id="0" />
        <mxCell id="1" parent="0" />
        <mxCell id="wtGGcmH1KvgYHXcph9yO-1" value="&lt;div&gt;Investitor&lt;/div&gt;" style="shape=umlActor;verticalLabelPosition=bottom;verticalAlign=top;html=1;outlineConnect=0;" parent="1" vertex="1">
          <mxGeometry x="120" y="170" width="30" height="60" as="geometry" />
        </mxCell>
        <mxCell id="wtGGcmH1KvgYHXcph9yO-2" value="Analitičar&lt;div&gt;&lt;br&gt;&lt;/div&gt;" style="shape=umlActor;verticalLabelPosition=bottom;verticalAlign=top;html=1;outlineConnect=0;" parent="1" vertex="1">
          <mxGeometry x="120" y="300" width="30" height="60" as="geometry" />
        </mxCell>
        <mxCell id="wtGGcmH1KvgYHXcph9yO-19" value="&lt;div&gt;Administrator&lt;/div&gt;" style="shape=umlActor;verticalLabelPosition=bottom;verticalAlign=top;html=1;outlineConnect=0;" parent="1" vertex="1">
          <mxGeometry x="120" y="440" width="30" height="60" as="geometry" />
        </mxCell>
        <mxCell id="wtGGcmH1KvgYHXcph9yO-21" value="Sustav burze" style="shape=umlActor;verticalLabelPosition=bottom;verticalAlign=top;html=1;outlineConnect=0;" parent="1" vertex="1">
          <mxGeometry x="720" y="310" width="30" height="60" as="geometry" />
        </mxCell>
        <mxCell id="wtGGcmH1KvgYHXcph9yO-22" value="Pregled trenutnih cijena dionica" style="ellipse;whiteSpace=wrap;html=1;" parent="1" vertex="1">
          <mxGeometry x="260" y="165" width="110" height="70" as="geometry" />
        </mxCell>
        <mxCell id="wtGGcmH1KvgYHXcph9yO-23" value="" style="endArrow=classic;html=1;rounded=0;entryX=0;entryY=0.5;entryDx=0;entryDy=0;exitX=0.5;exitY=0.5;exitDx=0;exitDy=0;exitPerimeter=0;" parent="1" source="wtGGcmH1KvgYHXcph9yO-1" target="wtGGcmH1KvgYHXcph9yO-22" edge="1">
          <mxGeometry width="50" height="50" relative="1" as="geometry">
            <mxPoint x="240" y="260" as="sourcePoint" />
            <mxPoint x="290" y="210" as="targetPoint" />
          </mxGeometry>
        </mxCell>
        <mxCell id="wtGGcmH1KvgYHXcph9yO-24" value="&amp;lt;&amp;lt;include&amp;gt;&amp;gt;" style="endArrow=classic;html=1;rounded=0;dashed=1;exitX=0;exitY=0;exitDx=0;exitDy=0;entryX=0.986;entryY=0.642;entryDx=0;entryDy=0;entryPerimeter=0;" parent="1" source="wtGGcmH1KvgYHXcph9yO-25" target="wtGGcmH1KvgYHXcph9yO-27" edge="1">
          <mxGeometry x="0.2704" y="1" width="50" height="50" relative="1" as="geometry">
            <mxPoint x="410" y="100" as="sourcePoint" />
            <mxPoint x="490" y="110" as="targetPoint" />
            <mxPoint as="offset" />
          </mxGeometry>
        </mxCell>
        <mxCell id="wtGGcmH1KvgYHXcph9yO-25" value="Pregled tržišnih trendova" style="ellipse;whiteSpace=wrap;html=1;" parent="1" vertex="1">
          <mxGeometry x="630" y="50" width="120" height="80" as="geometry" />
        </mxCell>
        <mxCell id="wtGGcmH1KvgYHXcph9yO-27" value="Primanje notifikacija o promjenama cijena" style="ellipse;whiteSpace=wrap;html=1;" parent="1" vertex="1">
          <mxGeometry x="350" y="20" width="120" height="80" as="geometry" />
        </mxCell>
        <mxCell id="wtGGcmH1KvgYHXcph9yO-28" value="&amp;lt;&amp;lt;extend&amp;gt;&amp;gt;" style="endArrow=classic;html=1;rounded=0;exitX=0.5;exitY=0;exitDx=0;exitDy=0;dashed=1;" parent="1" source="wtGGcmH1KvgYHXcph9yO-22" target="wtGGcmH1KvgYHXcph9yO-27" edge="1">
          <mxGeometry width="50" height="50" relative="1" as="geometry">
            <mxPoint x="390" y="370" as="sourcePoint" />
            <mxPoint x="440" y="320" as="targetPoint" />
          </mxGeometry>
        </mxCell>
        <mxCell id="wtGGcmH1KvgYHXcph9yO-29" value="&amp;lt;&amp;lt;extend&amp;gt;&amp;gt;" style="endArrow=classic;html=1;rounded=0;exitX=1;exitY=0.5;exitDx=0;exitDy=0;dashed=1;" parent="1" source="wtGGcmH1KvgYHXcph9yO-22" target="wtGGcmH1KvgYHXcph9yO-30" edge="1">
          <mxGeometry width="50" height="50" relative="1" as="geometry">
            <mxPoint x="390" y="370" as="sourcePoint" />
            <mxPoint x="480" y="200" as="targetPoint" />
          </mxGeometry>
        </mxCell>
        <mxCell id="wtGGcmH1KvgYHXcph9yO-30" value="Generiranje izveštaja o dionicama" style="ellipse;whiteSpace=wrap;html=1;" parent="1" vertex="1">
          <mxGeometry x="485" y="180" width="100" height="60" as="geometry" />
        </mxCell>
        <mxCell id="wtGGcmH1KvgYHXcph9yO-31" value="" style="endArrow=none;html=1;rounded=0;exitX=1;exitY=1;exitDx=0;exitDy=0;" parent="1" source="wtGGcmH1KvgYHXcph9yO-30" target="wtGGcmH1KvgYHXcph9yO-21" edge="1">
          <mxGeometry width="50" height="50" relative="1" as="geometry">
            <mxPoint x="390" y="370" as="sourcePoint" />
            <mxPoint x="440" y="320" as="targetPoint" />
          </mxGeometry>
        </mxCell>
        <mxCell id="wtGGcmH1KvgYHXcph9yO-32" value="" style="endArrow=classic;html=1;rounded=0;exitX=0.5;exitY=0.5;exitDx=0;exitDy=0;exitPerimeter=0;" parent="1" source="wtGGcmH1KvgYHXcph9yO-2" target="wtGGcmH1KvgYHXcph9yO-33" edge="1">
          <mxGeometry width="50" height="50" relative="1" as="geometry">
            <mxPoint x="390" y="370" as="sourcePoint" />
            <mxPoint x="290" y="330" as="targetPoint" />
          </mxGeometry>
        </mxCell>
        <mxCell id="wtGGcmH1KvgYHXcph9yO-33" value="Tehnička analiza" style="ellipse;whiteSpace=wrap;html=1;" parent="1" vertex="1">
          <mxGeometry x="310" y="305" width="70" height="50" as="geometry" />
        </mxCell>
        <mxCell id="wtGGcmH1KvgYHXcph9yO-34" value="Generiranje preporuka" style="ellipse;whiteSpace=wrap;html=1;" parent="1" vertex="1">
          <mxGeometry x="475" y="370" width="110" height="60" as="geometry" />
        </mxCell>
        <mxCell id="wtGGcmH1KvgYHXcph9yO-35" value="" style="endArrow=classic;html=1;rounded=0;entryX=0;entryY=0.5;entryDx=0;entryDy=0;exitX=0.5;exitY=0.5;exitDx=0;exitDy=0;exitPerimeter=0;" parent="1" source="wtGGcmH1KvgYHXcph9yO-2" target="wtGGcmH1KvgYHXcph9yO-34" edge="1">
          <mxGeometry width="50" height="50" relative="1" as="geometry">
            <mxPoint x="390" y="370" as="sourcePoint" />
            <mxPoint x="440" y="320" as="targetPoint" />
          </mxGeometry>
        </mxCell>
        <mxCell id="wtGGcmH1KvgYHXcph9yO-36" value="" style="endArrow=none;html=1;rounded=0;entryX=0;entryY=0.3333333333333333;entryDx=0;entryDy=0;entryPerimeter=0;exitX=1;exitY=0.5;exitDx=0;exitDy=0;" parent="1" source="wtGGcmH1KvgYHXcph9yO-34" target="wtGGcmH1KvgYHXcph9yO-21" edge="1">
          <mxGeometry width="50" height="50" relative="1" as="geometry">
            <mxPoint x="390" y="370" as="sourcePoint" />
            <mxPoint x="440" y="320" as="targetPoint" />
          </mxGeometry>
        </mxCell>
        <mxCell id="wtGGcmH1KvgYHXcph9yO-37" value="Učitavanje povijesnih podataka" style="ellipse;whiteSpace=wrap;html=1;" parent="1" vertex="1">
          <mxGeometry x="440" y="260" width="100" height="60" as="geometry" />
        </mxCell>
        <mxCell id="wtGGcmH1KvgYHXcph9yO-38" value="&amp;lt;&amp;lt;include&amp;gt;&amp;gt;" style="endArrow=classic;html=1;rounded=0;dashed=1;exitX=0;exitY=0.5;exitDx=0;exitDy=0;entryX=1;entryY=0.5;entryDx=0;entryDy=0;" parent="1" source="wtGGcmH1KvgYHXcph9yO-37" target="wtGGcmH1KvgYHXcph9yO-33" edge="1">
          <mxGeometry x="-0.0909" width="50" height="50" relative="1" as="geometry">
            <mxPoint x="730" y="541" as="sourcePoint" />
            <mxPoint x="610" y="510" as="targetPoint" />
            <mxPoint as="offset" />
          </mxGeometry>
        </mxCell>
        <mxCell id="wtGGcmH1KvgYHXcph9yO-39" value="Upravljanje korisnicima" style="ellipse;whiteSpace=wrap;html=1;" parent="1" vertex="1">
          <mxGeometry x="320" y="435" width="110" height="70" as="geometry" />
        </mxCell>
        <mxCell id="wtGGcmH1KvgYHXcph9yO-40" value="" style="endArrow=classic;html=1;rounded=0;exitX=1;exitY=0.3333333333333333;exitDx=0;exitDy=0;exitPerimeter=0;entryX=0;entryY=0.5;entryDx=0;entryDy=0;" parent="1" source="wtGGcmH1KvgYHXcph9yO-19" target="wtGGcmH1KvgYHXcph9yO-39" edge="1">
          <mxGeometry width="50" height="50" relative="1" as="geometry">
            <mxPoint x="390" y="370" as="sourcePoint" />
            <mxPoint x="440" y="320" as="targetPoint" />
          </mxGeometry>
        </mxCell>
        <mxCell id="wtGGcmH1KvgYHXcph9yO-41" value="Upravljanje tržišnim podacima" style="ellipse;whiteSpace=wrap;html=1;" parent="1" vertex="1">
          <mxGeometry x="310" y="530" width="120" height="80" as="geometry" />
        </mxCell>
        <mxCell id="wtGGcmH1KvgYHXcph9yO-42" value="" style="endArrow=classic;html=1;rounded=0;exitX=0.5;exitY=0.5;exitDx=0;exitDy=0;exitPerimeter=0;entryX=0;entryY=0.5;entryDx=0;entryDy=0;" parent="1" source="wtGGcmH1KvgYHXcph9yO-19" target="wtGGcmH1KvgYHXcph9yO-41" edge="1">
          <mxGeometry width="50" height="50" relative="1" as="geometry">
            <mxPoint x="190" y="560" as="sourcePoint" />
            <mxPoint x="240" y="510" as="targetPoint" />
          </mxGeometry>
        </mxCell>
        <mxCell id="wtGGcmH1KvgYHXcph9yO-46" value="" style="endArrow=none;html=1;rounded=0;entryX=0.5;entryY=0.5;entryDx=0;entryDy=0;entryPerimeter=0;exitX=1;exitY=0.5;exitDx=0;exitDy=0;" parent="1" source="wtGGcmH1KvgYHXcph9yO-41" target="wtGGcmH1KvgYHXcph9yO-21" edge="1">
          <mxGeometry width="50" height="50" relative="1" as="geometry">
            <mxPoint x="390" y="370" as="sourcePoint" />
            <mxPoint x="440" y="320" as="targetPoint" />
          </mxGeometry>
        </mxCell>
        <mxCell id="wtGGcmH1KvgYHXcph9yO-47" value="" style="endArrow=classic;html=1;rounded=0;exitX=1;exitY=0.3333333333333333;exitDx=0;exitDy=0;exitPerimeter=0;" parent="1" source="wtGGcmH1KvgYHXcph9yO-2" target="wtGGcmH1KvgYHXcph9yO-48" edge="1">
          <mxGeometry width="50" height="50" relative="1" as="geometry">
            <mxPoint x="390" y="370" as="sourcePoint" />
            <mxPoint x="320" y="280" as="targetPoint" />
          </mxGeometry>
        </mxCell>
        <mxCell id="wtGGcmH1KvgYHXcph9yO-48" value="Temeljna analiza" style="ellipse;whiteSpace=wrap;html=1;" parent="1" vertex="1">
          <mxGeometry x="360" y="250" width="60" height="45" as="geometry" />
        </mxCell>
        <mxCell id="wtGGcmH1KvgYHXcph9yO-49" value="" style="endArrow=classic;html=1;rounded=0;entryX=0.5;entryY=0;entryDx=0;entryDy=0;exitX=0.5;exitY=1;exitDx=0;exitDy=0;dashed=1;" parent="1" source="wtGGcmH1KvgYHXcph9yO-25" target="wtGGcmH1KvgYHXcph9yO-34" edge="1">
          <mxGeometry width="50" height="50" relative="1" as="geometry">
            <mxPoint x="390" y="370" as="sourcePoint" />
            <mxPoint x="440" y="320" as="targetPoint" />
          </mxGeometry>
        </mxCell>
        <mxCell id="wtGGcmH1KvgYHXcph9yO-50" value="&amp;lt;&amp;lt;include&amp;gt;&amp;gt;" style="edgeLabel;html=1;align=center;verticalAlign=middle;resizable=0;points=[];" parent="wtGGcmH1KvgYHXcph9yO-49" vertex="1" connectable="0">
          <mxGeometry x="0.1576" relative="1" as="geometry">
            <mxPoint x="22" y="-23" as="offset" />
          </mxGeometry>
        </mxCell>
        <mxCell id="K-MILv9x3ANRdGEpPMbu-1" value="Validacija Tržišnih podataka" style="ellipse;whiteSpace=wrap;html=1;" vertex="1" parent="1">
          <mxGeometry x="200" y="670" width="120" height="80" as="geometry" />
        </mxCell>
        <mxCell id="K-MILv9x3ANRdGEpPMbu-3" value="&amp;lt;&amp;lt;include&amp;gt;&amp;gt;" style="endArrow=classic;html=1;rounded=0;dashed=1;exitX=0.5;exitY=0;exitDx=0;exitDy=0;entryX=0.5;entryY=1;entryDx=0;entryDy=0;" edge="1" parent="1" source="K-MILv9x3ANRdGEpPMbu-1" target="wtGGcmH1KvgYHXcph9yO-41">
          <mxGeometry x="-0.0909" width="50" height="50" relative="1" as="geometry">
            <mxPoint x="720" y="650" as="sourcePoint" />
            <mxPoint x="660" y="690" as="targetPoint" />
            <mxPoint as="offset" />
          </mxGeometry>
        </mxCell>
        <mxCell id="K-MILv9x3ANRdGEpPMbu-4" value="Dodavanje izvora podataka" style="ellipse;whiteSpace=wrap;html=1;" vertex="1" parent="1">
          <mxGeometry x="370" y="670" width="120" height="80" as="geometry" />
        </mxCell>
        <mxCell id="K-MILv9x3ANRdGEpPMbu-5" value="&amp;lt;&amp;lt;include&amp;gt;&amp;gt;" style="endArrow=classic;html=1;rounded=0;dashed=1;exitX=0.376;exitY=0.06;exitDx=0;exitDy=0;entryX=0.5;entryY=1;entryDx=0;entryDy=0;exitPerimeter=0;" edge="1" parent="1" source="K-MILv9x3ANRdGEpPMbu-4" target="wtGGcmH1KvgYHXcph9yO-41">
          <mxGeometry x="-0.0909" width="50" height="50" relative="1" as="geometry">
            <mxPoint x="470" y="700" as="sourcePoint" />
            <mxPoint x="580" y="640" as="targetPoint" />
            <mxPoint as="offset" />
          </mxGeometry>
        </mxCell>
      </root>
    </mxGraphModel>
  </diagram>
</mxfile>
